<?xml version="1.0" encoding="utf-8"?>
<!-- Generator: Adobe Illustrator 16.0.0, SVG Export Plug-In . SVG Version: 6.00 Build 0)  -->
<!DOCTYPE svg PUBLIC "-//W3C//DTD SVG 1.1//EN" "http://www.w3.org/Graphics/SVG/1.1/DTD/svg11.dtd">
<svg version="1.1" id="Réteg_1" xmlns="http://www.w3.org/2000/svg" xmlns:xlink="http://www.w3.org/1999/xlink" x="0px" y="0px"
	 width="75px" height="103.75px" viewBox="-1.5 -2.075 75 103.75" enable-background="new -1.5 -2.075 75 103.75"
	 xml:space="preserve">
<g id="Layer_x0020_1">
	<path fill="#99CC33" d="M33.551,93.84c-1.136-5.651,2.797-14.946,5.187-20.337c4.981-11.247,28.146-9.266,32.109-11.247
		c1.369-0.671,3.408-2.535,1.485-3.788c-6.118-3.962-17.628,6.09-9.499-10.052c11.976-23.688-9.383-1.69-7.109,0.35
		c5.099,4.574-6.7,13.782-15.385,15.879c-6.934,1.69-2.797-7.079-1.37-8.974c0.672-0.903,8.393-5.129,9.967-6.148
		c1.544-1.02,9.061-7.11,5.623-10.432c-3.322-3.205-7.721,1.224-7.954,4.895c-0.671,10.52-16.23-2.039-4.226-12.063
		c1.923-1.631,13.199-11.101,9.586-13.344c-2.913-1.283-4.05,2.709-6.439,3.088C41.302,17.501,61.027,2.67,56.57-1.03
		c-4.313-1.894-4.837,8.362-8.362,9.703c-1.021-1.661,0.116-4.69-1.778-5.915c-5.594-3.701-2.885,14.394-4.777,16.083
		c-3.613-1.282-4.458-15.909-9.558-12.937c-6.119,3.583,13.229,21.386,3.817,21.911c-1.224-1.224-0.729-3.438-3.147-3.934
		c-3.613,1.428-0.583,7.284-1.923,9.79c-6.411-0.466,0.408-19.056-5.565-16.492c-5.944,2.564-5.361-0.874-4.487-4.982
		c2.244-10.751-9.353-10.693-4.574,0.438c1.195,2.797,2.477,6.527,1.428,9.674c-1.923-0.641-6.556-7.168-9.178-8.508
		c-7.75-3.963-4.516,1.894-2.068,4.458c3.642,3.875,7.896,5.915,13.461,12.616c6.584,7.925,20.716,33.537,10.431,30.391
		c-7.576-2.332-8.887-19.144-14.511-16.23c-5.71,2.972,1.574,12.238,2.157,15.851c-0.991-0.146-20.164-8.713-15.531-1.341
		c4.604,7.371,16.23,4.226,23.864,7.226c13.287,5.245,1.078,22.145-9.412,10.14c-8.654-9.848-20.716-8.712-17.074-2.825
		c4.021,6.555,24.096,7.342,23.718,16.725c-0.147,3.468-0.816,6.904-1.224,10.372H35.27C34.891,98.998,34.279,97.481,33.551,93.84z"
		/>
</g>
</svg>
