<?xml version="1.0" encoding="utf-8"?>
<!-- Generator: Adobe Illustrator 16.0.0, SVG Export Plug-In . SVG Version: 6.00 Build 0)  -->
<!DOCTYPE svg PUBLIC "-//W3C//DTD SVG 1.1//EN" "http://www.w3.org/Graphics/SVG/1.1/DTD/svg11.dtd">
<svg version="1.1" id="Réteg_1" xmlns="http://www.w3.org/2000/svg" xmlns:xlink="http://www.w3.org/1999/xlink" x="0px" y="0px"
	 width="50px" height="22.498px" viewBox="-13 -5.849 50 22.498" enable-background="new -13 -5.849 50 22.498"
	 xml:space="preserve">
<g id="Layer_x0020_1">
	<path fill="#FEFEFE" d="M12.208-2.501C8.882-3.494,6.723-4.252,2.64-3.378c-3.618,0.818-4.726,2.16-6.419,4.084
		C-14.283-0.693-15.8,8.994-6.755,9.694c0.525,7.119,10.97,8.168,15.521,4.26c3.502,1.399,5.31,3.209,12.197,2.333
		c2.626-0.35,3.616-0.816,5.601-2.041c1.574-1.05,4.026-0.467,6.303-1.519c4.726-2.042,5.895-7.936-1.225-9.918
		c-2.336-0.642-1.285,0-2.452-1.634C28.137-0.46,26.33-1.16,23.588-1.335C23.411-6.937,13.784-6.996,12.208-2.501z"/>
</g>
</svg>
