<?xml version="1.0" encoding="utf-8"?>
<!-- Generator: Adobe Illustrator 16.0.0, SVG Export Plug-In . SVG Version: 6.00 Build 0)  -->
<!DOCTYPE svg PUBLIC "-//W3C//DTD SVG 1.1//EN" "http://www.w3.org/Graphics/SVG/1.1/DTD/svg11.dtd">
<svg version="1.1" id="Réteg_1" xmlns="http://www.w3.org/2000/svg" xmlns:xlink="http://www.w3.org/1999/xlink" x="0px" y="0px"
	 width="70px" height="40px" viewBox="-29 -16.4 70 40" enable-background="new -29 -16.4 70 40" xml:space="preserve">
<g id="Layer_x0020_1">
	<g id="_2473832785616">
		<path fill="#CAD407" d="M18.574,14.616c0,0-0.491,5.251-2.953,7.063c-2.462,1.805-7.882-0.985-7.882-0.985
			s-2.303-0.826,3.281-6.575L18.574,14.616z"/>
		<path fill="#CAD407" d="M18.574-5.585c0,0-4.43-9.194-7.061-9.194c-2.461,0-8.866,4.597-8.045,7.062
			c0.82,2.463,7.716,3.612,7.716,3.612L18.574-5.585z"/>
		<path fill="#37B6AD" d="M-25.105-8.045c6.896-3.613,13.138,10.509,14.942,10.509c1.149,0,1.806-0.328,2.298-0.492
			c0-0.164,0.168-0.164,0.168-0.33l0,0l0,0c4.43-3.45,12.969-9.032,22.66-9.032c13.468,0,24.472,10.509,25.784,11.822l0,0l0,0l0,0
			l0,0l0,0v0.164l0,0l0,0l0,0l0,0l0,0l0,0l0,0l0,0l0,0l0,0c-1.313,1.316-12.316,11.99-25.784,11.99
			c-10.185,0-18.886-6.077-23.157-9.686c-5.743,1.804-9.522,13.622-12.148,13.138c-2.795-0.33-3.615-2.633-1.647-5.75
			c2.139-3.287,1.482-2.467,0.165-3.287c-1.477-0.82,0.657-2.79,1.154-5.417c0.493-2.793-1.974-5.256-4.436-6.569
			C-27.402-2.137-32.002-4.597-25.105-8.045z"/>
		<path fill="#FFFFFF" d="M26.134,4.104c0,2.3,1.641,4.273,3.774,4.273c1.968,0,3.615-1.974,3.615-4.273
			c0-2.461-1.647-4.433-3.615-4.433C27.774-0.33,26.134,1.642,26.134,4.104z"/>
		<path fill="#00A0E3" d="M28.923,3.776c0,0.819,0.655,1.479,1.477,1.479s1.313-0.66,1.313-1.479c0-0.821-0.492-1.477-1.313-1.477
			S28.923,2.955,28.923,3.776z"/>
	</g>
</g>
</svg>
