<?xml version="1.0" encoding="utf-8"?>
<!-- Generator: Adobe Illustrator 16.0.0, SVG Export Plug-In . SVG Version: 6.00 Build 0)  -->
<!DOCTYPE svg PUBLIC "-//W3C//DTD SVG 1.1//EN" "http://www.w3.org/Graphics/SVG/1.1/DTD/svg11.dtd">
<svg version="1.1" id="Réteg_1" xmlns="http://www.w3.org/2000/svg" xmlns:xlink="http://www.w3.org/1999/xlink" x="0px" y="0px"
	 width="120px" height="120px" viewBox="-48 -48 120 120" enable-background="new -48 -48 120 120" xml:space="preserve">
<g id="Layer_x0020_1">
	<g id="_2437949120064">
		<path fill="#846244" d="M-45.752-46.866c-3.686-2.125-2.412-1.133-2.128-0.992c1.558,0.85,3.12,1.841,4.819,2.836
			c2.978,7.086,8.505,8.36,13.324,8.644c-0.142,4.254,8.221,11.34,13.465,11.198c0.425,0,0.85,0,1.276-0.141
			c0.14,5.527,5.384,15.023,9.354,16.297c-1.842,0.85-2.835,2.978-2.267,4.819c0.708,2.27,2.976,3.402,5.244,2.695
			C-0.54-2.075,0.737-4.486,0.028-6.61C-0.54-8.597-2.664-9.73-4.792-9.305l-0.141-0.142c-3.969-0.85-9.213-11.338-9.355-15.448
			c10.632,9.071,22.112,20.834,32.743,36.71c0.85,1.134,3.398,0.143,2.696-0.85C3.147-14.974-9.611-27.448-45.752-46.866z
			 M-43.061-45.021l0.425,0.283c0.567,1.275,1.133,2.267,1.844,3.117C-41.644-42.614-42.352-43.747-43.061-45.021z M-42.636-44.739
			c3.969,2.409,8.222,4.961,12.616,8.078h-0.141C-36.397-36.803-40.083-40.203-42.636-44.739z M-29.028-36.092
			c4.394,3.117,9.071,6.52,13.748,10.346c-0.142,0.142-0.425,0.142-0.567,0.142C-20.524-25.887-28.603-30.848-29.028-36.092z
			 M-28.887-34.25c0.566,1.417,1.7,2.836,3.119,4.111C-27.187-31.415-28.32-32.834-28.887-34.25z M-4.367-6.61
			c-0.708,0.141-1.132,0.99-0.85,1.7c0.142,0.708,0.992,1.136,1.703,0.85c0.708-0.142,1.132-0.992,0.85-1.699
			C-2.806-6.47-3.656-6.895-4.367-6.61z M-4.932-8.597C-6.633-8.027-7.766-6.186-7.2-4.344c0.567,1.701,2.409,2.693,4.254,2.126
			c1.841-0.425,2.832-2.41,2.267-4.11C-1.247-8.172-3.089-9.163-4.932-8.597z"/>
		<path fill="#AD925B" d="M52.474,23.859l-0.146,5.104c-9.209-1.982-28.061-1.699-38.268-1.842
			c0.427-2.124-2.692-10.203,4.109-9.071C29.935,20.322,40.28,22.159,52.474,23.859z"/>
		<path fill="#6C8740" d="M52.474,24.431c-2.979,0.71-16.302-0.991-18.855-3.121c0-0.704,0-0.282,0.57-0.704
			c-6.662-7.516-9.354-4.821-14.034-12.618c-0.85-0.85,0.282-1.417,0.146-2.835c1.133,0,7.65,3.118,11.051,4.677
			c-0.567-0.85-1.134-8.646-1.554-10.913c1.836-0.85,3.536-4.537,4.108-5.244c0.85-0.992,1.132-0.85,1.557-1.699
			C45.669-5.335,52.758,14.224,52.474,24.431z"/>
		<path fill="#7F9749" d="M33.618,21.31c-5.525-1.417-8.784-5.808-13.034-9.495c-0.997-0.85-2.271-2.127-3.546-2.693
			c0.142-1.417-0.567-3.97,1.983-4.112l1.279,0.142c0.851,0.711,8.782,7.23,10.063,8.222c0.85-1.134,1.417-12.333,3.967-15.449
			c2.267-2.553,6.517-0.992,6.517,2.833C40.993,8.98,34.473,21.457,33.618,21.31z"/>
		<path fill="#FBC777" d="M34.188-10.155c0,0.425-0.282,0.992,0.143,1.275l1.132,0.853c-0.425,0.85-0.707,0.708-1.557,1.699
			c-0.572,0.708-2.272,4.395-4.108,5.244l-1.14-2.267c-1.417-3.402-4.958-2.127-6.521-2.553c-0.704,0-0.986-1.417-1.134-1.841
			l-1.27-0.283c-0.572-0.146,0.282-2.27-0.147-3.687c-1.132-0.283,1.701-1.417,0.85-2.127c0.147,0,8.222,0.284,9.928,0.284
			c0.42,1.136,0.136,2.411,0.85,2.978C31.917-9.872,33.051-9.73,34.188-10.155z M19.021,5.01c-2.551,0.142-1.842,2.695-1.983,4.112
			c-3.827,0.85-5.812-1.276-5.244-5.669l1.132-0.284c1.276,0.284,3.12,1.134,2.978-0.708C17.463,2.886,18.455,3.311,19.021,5.01z"/>
		<path fill="#856141" d="M34.188-10.155c-1.138,0.425-2.271,0.283-2.975-0.425c-0.714-0.567-0.43-1.842-0.85-2.978
			c1.133-0.567,3.399-2.126,4.392-2.551L34.188-10.155z"/>
		<path fill="#856141" d="M28.233-8.738c0.425,1.703,0.567,3.543,0.425,5.388c-0.282,1.984-0.707,2.691-2.407,2.974
			c-1.417,0.285-3.968-3.968-4.113-5.527c0.283-0.142,1.133-0.142,1.417-0.425c0.283-0.142,0.283-0.142,0.43-0.425
			c0.425-1.42-2.131-0.283-2.696-0.142l-0.284-0.85c1.847-0.853,3.116-0.711,4.681-1.136c0.85-1.417,0.566-1.984,0.282-3.542
			l2.551-1.703c-0.284,1.136-0.425,2.41-0.425,3.687L28.233-8.738z"/>
		<path fill="#AD925B" d="M32.631-24.33l1.275,3.402c1.983,0.852,7.087,0.427,5.388,2.126c-6.38,6.521-18.428,7.938-24.807,6.947
			c-2.551-0.426,3.117-3.402,4.393-4.961c0.142-1.561-0.285-3.97,0.282-5.244C20.154-24.895,29.23-25.747,32.631-24.33z"/>
		<path fill="#846040" d="M-12.585,49.232c5.527,2.834,68.6,1.563,74.979,0.565c3.259-0.565,9.355-20.262,9.355-21.966
			c-38.416-0.285-64.633-2.977-102.337-5.81C-27.895,26.697-15.987,47.392-12.585,49.232z"/>
		<polygon fill="#5B5B5B" points="-43.061,-45.021 -42.919,-45.021 -42.352,-45.021 -42.352,71.631 -43.627,71.631 -43.627,-45.021 
					"/>
	</g>
</g>
</svg>
