<?xml version="1.0" encoding="utf-8"?>
<!-- Generator: Adobe Illustrator 16.0.0, SVG Export Plug-In . SVG Version: 6.00 Build 0)  -->
<!DOCTYPE svg PUBLIC "-//W3C//DTD SVG 1.1//EN" "http://www.w3.org/Graphics/SVG/1.1/DTD/svg11.dtd">
<svg version="1.1" id="Réteg_1" xmlns="http://www.w3.org/2000/svg" xmlns:xlink="http://www.w3.org/1999/xlink" x="0px" y="0px"
	 width="70px" height="41.996px" viewBox="-29 -17.398 70 41.996" enable-background="new -29 -17.398 70 41.996"
	 xml:space="preserve">
<g id="Layer_x0020_1">
	<g id="_2473841237552">
		<path fill="#28AAE2" d="M23.32-8.216c0,0-5.422-8.541-9.523-8.706C9.689-17.085-3.283-5.755-5.416-1.484
			C-7.55,2.784,23.32-8.216,23.32-8.216z"/>
		<path fill="#FDC619" d="M-26.107-4.112c5.42-6.569,10.998,6.733,12.645,6.733c0.985,0,1.97-0.657,2.461-1.148
			c0.164-0.165,0.164-0.165,0.329-0.328l0,0l0,0C-6.401-2.963,2.465-9.86,12.484-9.86c9.03,0,17.075,2.463,21.675,6.24h0.165
			c0,0,0,0.165,0.163,0.165l0,0c0.165,0.163,0.493,0.492,0.656,0.656l0,0l0.165,0.164h0.164c0,0.164,0,0.164,0,0.164l0.163,0.165
			c0,0,0.165,0,0.165,0.164l0,0c0.163,0,0.163,0.165,0.163,0.165l0,0c0.165,0,0.165,0.167,0.165,0.167l0,0
			c0,0.164,0.163,0.164,0.163,0.164s0,0.165,0.165,0.165l0,0c0,0.164,0.163,0.164,0.163,0.164v0.165l0.165,0.163l0,0
			c0.164,0.165,0.164,0.165,0.164,0.329l0,0c0.165,0,0.165,0.165,0.165,0.165c0,0.164,0.163,0.164,0.163,0.164v0.164
			c0,0,0.163,0,0.163,0.165c0,0,0,0,0,0.164h0.165c0,0.165,0,0.165,0,0.165v0.163c0.163,0,0.163,0.165,0.163,0.165
			c0.328-0.328,0.822-0.493,1.313-0.493c0.99,0,1.646,0.657,1.646,1.645c0,0.655-0.328,1.312-0.985,1.64
			c0.165,0.165,0.165,0.494,0.165,0.657c0,0.823-0.493,1.479-1.317,1.479h-0.165v0.164c0,0.164-0.164,0.164-0.164,0.164v0.164v0.165
			v0.163c-0.165,0-0.165,0.161-0.165,0.161v0.17c0,0,0,0,0,0.159l-0.163,0.17l0,0c0,0.158-0.165,0.326-0.165,0.326v0.158
			c0,0,0,0.17-0.163,0.17c0,0,0,0,0,0.165c0,0,0,0-0.165,0.164l0,0c0,0.164,0,0.164-0.163,0.164c0,0.164,0,0.164,0,0.164
			c0,0.165,0,0.165-0.163,0.165v0.163c0,0-0.165,0.165-0.165,0.328h-0.164c0,0.163,0,0.163,0,0.163
			c-0.165,0-0.165,0.165-0.165,0.165s0,0.164-0.163,0.164c0,0,0,0,0,0.164c-0.165,0-0.165,0-0.165,0c0,0.164,0,0.164-0.163,0.164
			c0,0.165,0,0.165,0,0.165c-0.165,0-0.165,0.163-0.165,0.163s-0.163,0-0.163,0.165l-0.165,0.163l-0.163,0.165
			c0,0-0.164,0-0.164,0.163c0,0,0,0-0.165,0c0,0.164,0,0.164-0.163,0.164c0,0.164,0,0.164,0,0.164c-0.165,0-0.165,0.164-0.165,0.164
			h-0.163c0,0.17-0.165,0.17-0.165,0.17c0,0.158,0,0.158-0.163,0.158c-0.165,0.17-0.328,0.328-0.657,0.498c0,0,0,0,0,0.158
			c-0.163,0-0.163,0-0.328,0v0.17c-0.163,0-0.163,0.158-0.328,0.158l0,0c-0.163,0.17-0.163,0.17-0.328,0.17v0.159
			c-0.333,0.17-0.662,0.328-0.825,0.498h-0.165l-0.163,0.158h-0.165l-0.163,0.17h-0.165c0,0.158-0.163,0.158-0.327,0.158l0,0
			c-0.493,0.327-0.984,0.497-1.313,0.825h-0.165c0,0-0.164,0-0.327,0.165l0,0c-0.165,0-0.328,0-0.328,0.163l0,0
			c-0.656,0.165-1.313,0.493-2.133,0.656l0,0c0,0.164-0.165,0.164-0.329,0.164l0,0c-1.646,0.656-3.451,0.984-5.421,1.313l0,0
			c-2.63,0.492-5.255,0.82-8.209,0.82c-10.02,0-18.885-7.061-23.157-11.167l0,0c-4.6-0.982-11.005,8.379-14.122,7.388
			c-3.288-0.813-1.313-2.783-2.462-3.773c-1.318-0.984,0-2.625,0.165-5.253C-27.092,2.621-31.364,2.456-26.107-4.112z"/>
		<path fill="#28AAE2" d="M22.007,14.61c1.148,0.163-0.492,8.537-1.969,9.357c-1.482,0.82-6.569-1.805-6.241-2.958
			C13.961,19.696,19.873,14.117,22.007,14.61z"/>
		<path fill="#FFFFFF" d="M25.779-0.335c0,1.48,1.646,2.792,3.452,2.792c1.97,0,3.451-1.312,3.451-2.792
			c0-1.643-1.481-2.957-3.451-2.957C27.426-3.292,25.779-1.979,25.779-0.335z"/>
		<path fill="#28AAE2" d="M28.411-0.664c0,0.82,0.656,1.313,1.313,1.313c0.819,0,1.312-0.493,1.312-1.313
			c0-0.657-0.492-1.315-1.312-1.315C29.067-1.979,28.411-1.32,28.411-0.664z"/>
	</g>
</g>
</svg>
