<?xml version="1.0" encoding="utf-8"?>
<!-- Generator: Adobe Illustrator 16.0.0, SVG Export Plug-In . SVG Version: 6.00 Build 0)  -->
<!DOCTYPE svg PUBLIC "-//W3C//DTD SVG 1.1//EN" "http://www.w3.org/Graphics/SVG/1.1/DTD/svg11.dtd">
<svg version="1.1" id="Réteg_1" xmlns="http://www.w3.org/2000/svg" xmlns:xlink="http://www.w3.org/1999/xlink" x="0px" y="0px"
	 width="70px" height="50px" viewBox="-29 -20.2 70 50" enable-background="new -29 -20.2 70 50" xml:space="preserve">
<g id="Layer_x0020_1">
	<g id="_2473841223920">
		<path fill="#FF931D" d="M16.533-11.94c0,0-4.379-8.598-7.812-8.128C5.283-19.6,7.94-17.411,6.22-15.848
			c-1.719,1.563-3.283-1.251-4.845,0c-1.564,1.095-0.158,2.657-1.251,3.438c-1.095,0.782-2.188-0.625-3.283,0.469
			c-1.25,0.938-0.157,2.658-1.094,3.284C-5.347-8.031-6.13-9.125-6.911-7.875C-7.848-6.625-7.223-2.25-7.223-2.25L16.533-11.94z"/>
		<path fill="#79C842" d="M-26.295,5.097c2.188-0.469,6.566,7.508,9.536,7.508S-13.632-0.999-0.657-9.438
			c12.812-8.441,26.415-0.157,30.322,8.439c2.501,5.471,5.158,7.348,6.877,7.973c0.158-0.47,0.627-0.781,1.096-0.781
			c0.781,0,1.407,0.625,1.407,1.406c0,0.465-0.157,0.779-0.47,1.091c0.313,0.313,0.47,0.627,0.47,1.101
			c0,0.776-0.626,1.401-1.407,1.401c-0.156,0-0.313-0.15-0.469-0.15c-1.875,4.527-7.035,11.567-18.76,14.532
			C2.156,29.795-14.727,15.568-16.448,15.73c-1.719,0.151-6.409,6.091-7.815,5.466c-1.564-0.625-0.782-4.064-0.625-6.879
			C-24.732,11.354-28.64,5.41-26.295,5.097z"/>
		<path fill="#FFFFFF" d="M19.191,5.097c0,2.346,1.563,4.38,3.752,4.38c2.032,0,3.752-2.034,3.752-4.38
			c0-2.5-1.72-4.533-3.752-4.533C20.755,0.563,19.191,2.597,19.191,5.097z"/>
		<path fill="#00A0E3" d="M22.004,4.785c0,0.782,0.626,1.408,1.408,1.408s1.406-0.626,1.406-1.408s-0.624-1.406-1.406-1.406
			S22.004,4.003,22.004,4.785z"/>
		<path fill="#FF931D" d="M11.53,19.481c1.406,0.313-0.469,9.375-2.032,10.156c-1.558,0.782-7.03-1.876-6.716-3.277
			C3.094,24.948,9.498,18.856,11.53,19.481z"/>
	</g>
</g>
</svg>
