<?xml version="1.0" encoding="utf-8"?>
<!-- Generator: Adobe Illustrator 16.0.0, SVG Export Plug-In . SVG Version: 6.00 Build 0)  -->
<!DOCTYPE svg PUBLIC "-//W3C//DTD SVG 1.1//EN" "http://www.w3.org/Graphics/SVG/1.1/DTD/svg11.dtd">
<svg version="1.1" id="Réteg_1" xmlns="http://www.w3.org/2000/svg" xmlns:xlink="http://www.w3.org/1999/xlink" x="0px" y="0px"
	 width="60px" height="60px" viewBox="0 0 60 60" enable-background="new 0 0 60 60" xml:space="preserve">
<g id="Layer_x0020_1_9_">
	<path fill="#FDC71C" d="M23.896,0.493C20.922,5.601,20.502,7.7,12.597,5.531c0.349,6.087-2.415,8.955-8.326,9.129
		c3.288,5.248,0.979,10.076-3.883,11.685c0.735,0.84,3.253,2.028,3.849,5.387c0.559,3.183-0.84,5.562-2.344,6.997
		c0.804,0.523,1.958,0.56,3.184,1.295c3.288,2.028,4.407,6.015,2.798,9.55c2.904-0.143,4.723-0.525,6.962,1.118
		c1.783,1.294,2.833,3.077,3.042,6.157c2.239-1.154,3.744-2.625,7.207-1.68c2.344,0.665,4.093,2.414,4.827,4.443
		c3.325-4.617,6.543-6.752,12.175-2.66c0.454-3.077,1.015-4.617,2.973-6.121c2.52-1.923,3.849-1.328,7.102-1.258
		c-2.064-4.933,0.175-8.712,5.072-10.461c0.105-0.034,0.21-0.07,0.28-0.104l0.523-0.246c0.07-0.034,0.177-0.07,0.281-0.14
		c-3.813-3.43-3.709-8.921,1.294-11.999c-1.505-1.294-8.151-3.042-3.849-11.929c-5.841-0.419-8.71-2.868-8.255-9.234
		c-2.799,0.91-4.618,1.678-7.521,0.104c-2.765-1.503-2.379-2.588-3.813-5.177C31.626,4.726,28.723,4.761,23.896,0.493z"/>
</g>
</svg>
